:SAMPLES-PER-SECOND 30
:FULLY-SPECIFIED
:DEGREES
274
root  -6.015755436 38.46555695 4.730644376 105.3410034 -82.11940002 -99.16400146
lowerback  13.83010006 5.463170052 -5.741519928
upperback  3.578730106 5.581669807 -7.311709881
thorax  -3.745899916 2.595410109 -5.456459999
lowerneck  -4.265250206 8.739049911 -3.563930035
upperneck  19.11790085 9.609490395 13.17500019
head  5.557400227 5.180009842 5.254909992
lclavicle  0 -9.442270133e-015 7.951389973e-016
lhumerus  -47.74499893 15.58580017 71.54669952
lradius  2.160256182e-031 -2.793230614e-031 127.7180023
lwrist  -7.062250077e-031 7.062250077e-031 62.24940109
lhand  -1.496451383e-031 -27.76390076 20.11240005
lfingers  90 7.125020027 -90
lthumb  89.89689403 5.08795885 91.16245106
rclavicle  0 -9.442270133e-015 7.951389973e-016
rhumerus  -30.54540062 12.21329975 -84.29560089
rradius  -1.557062596e-032 3.527690406e-031 92.52729797
rwrist  7.062250077e-031 7.062250077e-031 -51.07369995
rhand  -7.920061211e-032 -33.2840004 9.303460121
rfingers  -90 -7.125020027 -90
rthumb  -92.93752616 -24.25625642 -97.11982154
rfemur  -9.62185955 21.26420021 9.356030464
rtibia  -0 0 40.69449997
rfoot  -4.622999104e-032 -17.29800034 2.955379963
rtoes  5.373923086 19.29304026 -105.8922705
lfemur  -39.58240128 0.749679029 15.77369976
ltibia  -0 0 45.70119858
lfoot  -0 6.495800018 7.451570034
ltoes  -4.250644065 -19.5611806 -102.515957
275
root  -6.144666672 38.27399907 4.82493348 115.2430115 -81.54959869 -109.2879944
lowerback  13.75949955 5.536630154 -5.799890041
upperback  3.430099964 5.630129814 -7.604020119
thorax  -3.838809967 2.611850023 -5.751150131
lowerneck  -4.569029808 9.163700104 -3.085410118
upperneck  19.81550026 10.11750031 12.83419991
head  5.835730076 5.437699795 5.142889977
lclavicle  0 -9.442270133e-015 7.951389973e-016
lhumerus  -50.94689941 18.41729927 69.45259857
lradius  2.068856241e-031 -2.861586604e-031 125.8659973
lwrist  -7.062250077e-031 7.062250077e-031 63.96490097
lhand  -1.496451383e-031 -27.76390076 20.11240005
lfingers  90 7.125020027 -90
lthumb  89.89689403 5.08795885 91.16245106
rclavicle  0 -9.442270133e-015 7.951389973e-016
rhumerus  -30.82460022 12.97669983 -85.48930359
rradius  -7.159633516e-033 3.530399128e-031 91.16179657
rwrist  7.062250077e-031 5.296687558e-031 -51.22800064
rhand  -7.920061211e-032 -33.2840004 9.303460121
rfingers  -90 -7.125020027 -90
rthumb  -92.93752616 -24.25625642 -97.11982154
rfemur  -8.979040146 21.0991993 8.801179886
rtibia  -0 0 39.36660004
rfoot  -4.635102011e-032 -17.77210045 3.867000103
rtoes  5.373923086 19.29304026 -105.8922705
lfemur  -37.92139816 -0.02359860018 16.82159996
ltibia  -0 0 44.9477005
lfoot  -0 6.988870144 7.765110016
ltoes  -4.250644065 -19.5611806 -102.515957
276
root  -6.281444595 38.07222261 4.968066854 123.0570068 -80.51629639 -117.5090027
lowerback  13.93239975 5.569819927 -5.386879921
upperback  3.279409885 5.667099953 -7.901500225
thorax  -4.019309998 2.62071991 -6.337870121
lowerneck  -4.649889946 9.598670006 -2.780440092
upperneck  20.37829971 10.63220024 12.70390034
head  6.012499809 5.692039967 5.106389999
lclavicle  0 -9.442270133e-015 7.951389973e-016
lhumerus  -53.97230148 20.96260071 66.93039703
lradius  1.944382415e-031 -2.947578847e-031 123.4110031
lwrist  -3.531125038e-031 1.059337512e-030 65.91400146
lhand  -1.496451383e-031 -27.76390076 20.11240005
lfingers  90 7.125020027 -90
lthumb  89.89689403 5.08795885 91.16245106
rclavicle  0 -9.442270133e-015 7.951389973e-016
rhumerus  -31.12199974 13.70269966 -86.6832962
rradius  2.818899551e-033 3.53101252e-031 89.54260254
rwrist  7.062250077e-031 3.531125038e-031 -51.37680054
rhand  -7.920061211e-032 -33.2840004 9.303460121
rfingers  -90 -7.125020027 -90
rthumb  -92.93752616 -24.25625642 -97.11982154
rfemur  -8.349710464 20.82040024 8.464960098
rtibia  -0 0 38.35749817
rfoot  -4.641045192e-032 -17.99959946 5.38365984
rtoes  5.373923086 19.29304026 -105.8922705
lfemur  -35.99700165 -0.9979419708 18.02560043
ltibia  -0 0 44.25220108
lfoot  -0 7.506030083 7.398590088
ltoes  -4.250644065 -19.5611806 -102.515957
277
root  -6.432933507 37.91266614 5.100088795 128.3049927 -79.23999786 -123.0220032
lowerback  14.02830029 5.614180088 -4.812719822
upperback  3.039809942 5.750360012 -8.216389656
thorax  -4.229680061 2.652250051 -7.043519974
lowerneck  -4.478970051 9.959090233 -2.564189911
upperneck  20.81839943 11.01659966 12.81809998
head  6.096960068 5.885819912 5.133989811
lclavicle  0 -9.442270133e-015 7.951389973e-016
lhumerus  -56.40259933 22.88669968 64.30210114
lradius  1.775533648e-031 -3.052265437e-031 120.1869965
lwrist  -3.531125038e-031 3.531125038e-031 67.96800232
lhand  -1.496451383e-031 -27.76390076 20.11240005
lfingers  90 7.125020027 -90
lthumb  89.89689403 5.08795885 91.16245106
rclavicle  0 -9.442270133e-015 7.951389973e-016
rhumerus  -31.57390022 13.97229958 -87.92449951
rradius  1.483361682e-032 3.528007996e-031 87.5923996
rwrist  7.062250077e-031 5.296687558e-031 -51.4056015
rhand  -7.920061211e-032 -33.2840004 9.303460121
rfingers  -90 -7.125020027 -90
rthumb  -92.93752616 -24.25625642 -97.11982154
rfemur  -7.968299866 20.49580002 8.383540154
rtibia  -0 0 37.52410126
rfoot  -0 -18.15800095 7.993969917
rtoes  5.373923086 19.29304026 -105.8922705
lfemur  -34.21060181 -2.010129929 19.30179977
ltibia  -0 0 43.69850159
lfoot  4.45889882e-032 8.146289825 6.421730042
ltoes  -4.250644065 -19.5611806 -102.515957
278
root  -6.593177825 37.79488811 5.202199906 134.697998 -77.96600342 -129.5799866
lowerback  13.87419987 5.815939903 -4.889430046
upperback  2.775899887 5.945789814 -8.63778019
thorax  -4.372950077 2.735009909 -7.500699997
lowerneck  -4.144780159 10.31890011 -2.586859941
upperneck  21.13660049 11.4034996 13.11900043
head  6.083990097 6.071469784 5.237510204
lclavicle  0 -9.442270133e-015 7.951389973e-016
lhumerus  -57.88909912 24.47360039 61.77370071
lradius  1.559012203e-031 -3.168331578e-031 116.1999969
lwrist  -7.062250077e-031 7.062250077e-031 70.88220215
lhand  -1.496451383e-031 -27.76390076 20.11240005
lfingers  90 7.125020027 -90
lthumb  89.89689403 5.08795885 91.16245106
rclavicle  0 -9.442270133e-015 7.951389973e-016
rhumerus  -32.10540009 14.06649971 -89.22250366
rradius  2.751321247e-032 3.520390085e-031 85.53119659
rwrist  7.062250077e-031 3.531125038e-031 -51.45569992
rhand  -7.920061211e-032 -33.2840004 9.303460121
rfingers  -90 -7.125020027 -90
rthumb  -92.93752616 -24.25625642 -97.11982154
rfemur  -8.040200233 20.41530037 7.908619881
rtibia  -0 0 36.98139954
rfoot  -0 -18.11269951 9.944379807
rtoes  5.373923086 19.29304026 -105.8922705
lfemur  -32.24259949 -3.002039909 20.04190063
ltibia  -0 0 43.30170059
lfoot  4.438889268e-032 6.081719875 6.209370136
ltoes  -4.250644065 -19.5611806 -102.515957
279
root  -6.752133557 37.6828892 5.310244448 141.0799866 -76.66300201 -136.1579895
lowerback  13.63020039 6.108990192 -5.557409763
upperback  2.529150009 6.177219868 -9.001460075
thorax  -4.514910221 2.835750103 -7.562270164
lowerneck  -3.830650091 10.72259998 -2.686549902
upperneck  21.72109985 11.84189987 13.33909988
head  6.153269768 6.267680168 5.344220161
lclavicle  0 -9.442270133e-015 7.951389973e-016
lhumerus  -58.4844017 25.81529999 59.55189896
lradius  1.303674908e-031 -3.281657473e-031 111.6660004
lwrist  -7.062250077e-031 7.062250077e-031 75.6595993
lhand  -1.496451383e-031 -27.76390076 20.11240005
lfingers  90 7.125020027 -90
lthumb  89.89689403 5.08795885 91.16245106
rclavicle  0 -9.442270133e-015 7.951389973e-016
rhumerus  -32.7682991 14.28129959 -90.35389709
rradius  3.931818765e-032 3.50916686e-031 83.60700226
rwrist  0 1.765562519e-031 -51.53070068
rhand  -7.920061211e-032 -33.2840004 9.303460121
rfingers  -90 -7.125020027 -90
rthumb  -92.93752616 -24.25625642 -97.11982154
rfemur  -8.366140366 20.42720032 7.109399796
rtibia  -0 0 36.80680084
rfoot  -0 -17.95089912 11.02499962
rtoes  5.373923086 19.29304026 -105.8922705
lfemur  -30.05170059 -3.848150015 20.17350006
ltibia  -0 0 43.0848999
lfoot  -0 3.410049915 7.465769768
ltoes  -4.250644065 -19.5611806 -102.515957
